<svg xmlns="http://www.w3.org/2000/svg" viewBox="0 0 318.08 46.9"><defs><style>.cls-1{fill:#9b1006;}.cls-1,.cls-2{fill-rule:evenodd;}.cls-2,.cls-3{fill:#369;}.cls-4{fill:#fff;}.cls-5{fill:#900;}</style></defs><g id="Layer_2" data-name="Layer 2"><g id="Layer_1-2" data-name="Layer 1"><path class="cls-1" d="M142.78,30.71v6.9H121.11V16.16a15.64,15.64,0,0,1,8.67,2.54v.9H140.3V26H129.78v4.67Z"/><path class="cls-1" d="M121.11,14.3v-2a11.71,11.71,0,0,1,5,1.7l-2-2.64a6.59,6.59,0,0,0-3-.94V8.75h21.67V15.4h-13v3.06l-1.35-1.86A14.08,14.08,0,0,0,121.11,14.3Z"/><path class="cls-1" d="M86.53,10.15V29.26a13,13,0,0,1-11.36-1.32c-5.12-3.5-6-10-2-14.47A12.87,12.87,0,0,1,86.53,10.15Z"/><path class="cls-1" d="M75.62,8.66H86.53v1.4a14,14,0,0,0-15.15,3.42C67,18.38,68,25.45,73.6,29.27a14.8,14.8,0,0,0,12.93,1.92v2a17.57,17.57,0,0,1-14.21-2.34c-6.52-4.45-7.16-12.74-2.07-18.45A14.84,14.84,0,0,1,75.62,8.66Z"/><path class="cls-1" d="M68.09,8.66h5.06A15.93,15.93,0,0,0,68,12.45c-5.55,6.22-4.72,15.12,2.38,20a20.27,20.27,0,0,0,16.13,2.9V37c-5.62,1.31-12.28.53-17.16-2.81C61.1,28.53,60.29,17.25,66.75,10A17.07,17.07,0,0,1,68.09,8.66Z"/><path class="cls-1" d="M56.86,8.66h8.4c-.47.44-.92.89-1.35,1.37-7,7.9-5.7,19.54,3.33,25.71a23.09,23.09,0,0,0,3.87,2.12H56.86Z"/><path class="cls-1" d="M119.22,16.21v21.4H111V20.06C113.72,18.21,116.91,16.42,119.22,16.21Z"/><path class="cls-1" d="M119.22,12.2v2.14a15.82,15.82,0,0,0-3.73.59c-4.2,1.17-11.2,7.09-11.2,7.09l.94,2.37s2.14-1.84,4.91-3.77l-4.52,17H100L94.55,17l-.08,20.61H87.82V8.75H99.39l4.13,12.36.86-2.43c2-1.71,6.49-5,11.67-6.17A13.33,13.33,0,0,1,119.22,12.2Z"/><path class="cls-1" d="M119.22,9.07V10.3a22.81,22.81,0,0,0-6.61.84,24.72,24.72,0,0,0-7,3.73l1.05-3.29a32,32,0,0,1,6-2.48A13.83,13.83,0,0,1,115,8.75h2.1A13.84,13.84,0,0,1,119.22,9.07Z"/><path class="cls-2" d="M315,8.62h-2V9h.78v2.54h.43V9H315Zm3.09,0h-.62l-.72,2.09L316,8.62h-.63v3h.39V9l.82,2.54L317.68,9v2.54h.39Zm-21.43,26.2c0,1.26-.42,1.6-3,1.85v.93h19.05v-11h-.93c-.76,5.86-1.6,9.69-8.76,9.69-2.62,0-3.37-.42-3.37-2.27V23.11c5,0,5.14.68,5.56,4.8h.92V16.79h-.92c-.42,4.3-.59,5-5.56,5V12.24c0-1.85.75-2.27,3.37-2.27,5.3,0,7.75,1.9,8.25,9.35h.93V8.62H293.61v.93c2.62.25,3,.59,3,1.85ZM288,37.6v-.93c-3.11-.25-3.53-.59-3.53-1.85V10c4.88,0,6.53.42,7.49,9.1h.93V8.62h-19.8V19.07h.93c1-8.68,2.61-9.1,7.5-9.1V34.82c0,1.26-.42,1.6-3.54,1.85v.93Zm-37.51-29v.93c2.7.25,3.12.59,3.12,1.85v19c0,4.63,2.36,7.91,8.09,7.91,5.14,0,8.26-2.61,8.26-9.09V12.33c0-1.77.84-2.53,3.11-2.78V8.62h-7.41v.93c2.11.25,2.95,1,2.95,2.78V29.89c0,4.72-2,7-6.58,7-3.45,0-5.47-2.53-5.47-5.9V11.4c0-1.26.42-1.6,3.12-1.85V8.62Zm-5.32,29v-.93c-3.12-.25-3.54-.59-3.54-1.85V10c4.88,0,6.53.42,7.5,9.1h.92V8.62h-19.8V19.07h.93c1-8.68,2.61-9.1,7.5-9.1V34.82c0,1.26-.42,1.6-3.54,1.85v.93ZM225.93,11.4c0-1.26.42-1.6,3-1.85V8.62h-9v.93c2.61.25,3,.59,3,1.85V34.82c0,1.26-.42,1.6-3,1.85v.93h9v-.93c-2.62-.25-3-.59-3-1.85ZM213.74,37.6v-.93c-3.12-.25-3.54-.59-3.54-1.85V10c4.89,0,6.53.42,7.5,9.1h.93V8.62h-19.8V19.07h.92c1-8.68,2.61-9.1,7.5-9.1V34.82c0,1.26-.42,1.6-3.54,1.85v.93Zm-17.34-29h-1.1c-.8,1.35-1,1.77-1.22,1.77s-.34-.17-.71-.55A6.61,6.61,0,0,0,188.73,8a7.16,7.16,0,0,0-7.16,7.45c0,10.58,13.56,7.12,13.56,15.12,0,2.95-2,6.24-5.43,6.24a6.12,6.12,0,0,1-5.31-3.29c-1-1.6-1.73-5-2.06-7.33h-1.1V37.6h1.1c.38-.8.88-1.6,1.35-1.6.88,0,2.73,2.27,6,2.27,4.42,0,8.05-3.79,8.05-8.71,0-10.91-13.57-6.32-13.57-15.08,0-2.57,1.69-5,4.34-5,2.95,0,5.77,1.86,6.74,9.61h1.14ZM151.16,11.4c0-1.26.42-1.6,3-1.85V8.62h-9v.93c2.61.25,3,.59,3,1.85V34.82c0,1.26-.42,1.6-3,1.85v.93h9v-.93c-2.62-.25-3-.59-3-1.85Zm5.36-2.78v.93c2.78.25,3.21,1.18,3.21,3V33.89c0,1.77-.85,2.53-3,2.78v.93h7.84v-.93c-2.61-.25-3.46-1-3.46-2.78V14L174.6,37.6H176V12.33c0-1.77.84-2.53,3.2-2.78V8.62h-7.84v.93c2.44.25,3.29,1,3.29,2.78V31.62l-13.11-23Z"/><rect class="cls-3" width="46.89" height="46.9"/><rect class="cls-4" x="6.79" y="6.79" width="33.32" height="33.32"/><rect class="cls-5" x="8.16" y="8.16" width="30.57" height="30.57"/></g></g></svg>