<svg xmlns="http://www.w3.org/2000/svg" viewBox="0 0 360 46.9"><defs><style>.cls-1{fill:#369;}.cls-2{fill:#fff;}.cls-3{fill:#900;}</style></defs><g id="Layer_2" data-name="Layer 2"><g id="Layer_1-2" data-name="Layer 1"><rect class="cls-1" width="46.89" height="46.9"/><rect class="cls-2" x="6.79" y="6.79" width="33.32" height="33.32"/><rect class="cls-3" x="8.16" y="8.16" width="30.57" height="30.57"/><path class="cls-3" d="M72.58,40.43a37.71,37.71,0,0,1-1.65,4.66,28.15,28.15,0,0,1-5.49.77c-7.63,0-10.9-5.1-10.9-9.76,0-6.13,4.69-10.28,11.58-10.28a22.31,22.31,0,0,1,5.31.79c.23,1.62.44,2.95.64,4.69l-1,.2c-.88-3.36-3-4.48-5.57-4.48-4.5,0-6.95,4.07-6.95,8.49,0,5.42,3,9.08,7.19,9.08,2.68,0,4.39-1.59,5.89-4.54Z"/><path class="cls-3" d="M88.2,40.55c-.24,1.15-.83,4-1.09,4.86h-14v-.94c2.5-.21,2.8-.41,2.8-2.92V30.09c0-2.51-.27-2.68-2.57-2.86v-1h8.52v1c-2.27.18-2.53.35-2.53,2.86V41.67c0,1.44.11,2,.7,2.27a6.57,6.57,0,0,0,2.42.29c1.41,0,2.45-.17,3.12-1a8.26,8.26,0,0,0,1.59-2.95Z"/><path class="cls-3" d="M88.91,45.41v-.94c2.27-.21,2.53-.38,2.53-2.89V30.12c0-2.51-.26-2.71-2.53-2.89v-1h8.45v1c-2.26.18-2.5.38-2.5,2.89V41.58c0,2.48.24,2.68,2.5,2.89v.94Z"/><path class="cls-3" d="M119.79,27.2c-1.59.09-2.24.5-2.38,1.83a36.46,36.46,0,0,0-.24,4.92V45.71h-1.24l-12.38-15h-.06v6.92a43.94,43.94,0,0,0,.21,4.84c.15,1.38.71,1.85,2.83,2v.94H99.4v-.94c1.65-.12,2.36-.56,2.5-1.88a44.79,44.79,0,0,0,.24-4.93V31.39c0-2,0-2.42-.59-3.1A3.1,3.1,0,0,0,99,27.2v-.94h5.06l11.64,13.58h.09V34c0-2.65-.14-4-.2-4.89-.18-1.27-.8-1.74-2.92-1.86v-.94h7.1Z"/><path class="cls-3" d="M120.88,45.41v-.94c2.27-.21,2.54-.38,2.54-2.89V30.12c0-2.51-.27-2.71-2.54-2.89v-1h8.46v1c-2.27.18-2.5.38-2.5,2.89V41.58c0,2.48.23,2.68,2.5,2.89v.94Z"/><path class="cls-3" d="M148.56,40.43a36.13,36.13,0,0,1-1.65,4.66,28.15,28.15,0,0,1-5.48.77c-7.64,0-10.91-5.1-10.91-9.76,0-6.13,4.69-10.28,11.58-10.28a22.31,22.31,0,0,1,5.31.79c.23,1.62.44,2.95.65,4.69l-1,.2c-.89-3.36-3-4.48-5.57-4.48-4.51,0-7,4.07-7,8.49,0,5.42,3,9.08,7.19,9.08,2.68,0,4.39-1.59,5.9-4.54Z"/><path class="cls-3" d="M160.17,45.41v-.94c1.77-.26,2-.59,1.53-1.83-.32-1-.82-2.35-1.35-3.77h-5.87c-.38,1.09-.79,2.21-1.15,3.39-.5,1.59-.35,2,1.8,2.21v.94h-6.51v-.94c1.91-.26,2.3-.53,3.3-3.06l6-15.24,1.3-.35c1.88,5.12,3.74,10.43,5.65,15.5,1,2.59,1.36,2.91,3.25,3.15v.94Zm-2.65-14.76h-.09c-.85,2.27-1.65,4.57-2.48,6.78h4.9Z"/><path class="cls-3" d="M184.6,40.55c-.23,1.15-.82,4-1.09,4.86h-14v-.94c2.5-.21,2.79-.41,2.79-2.92V30.09c0-2.51-.26-2.68-2.56-2.86v-1h8.52v1c-2.27.18-2.54.35-2.54,2.86V41.67c0,1.44.12,2,.71,2.27a6.54,6.54,0,0,0,2.42.29c1.41,0,2.44-.17,3.12-1a8.26,8.26,0,0,0,1.59-2.95Z"/><path class="cls-3" d="M197.46,26.26c2.24,0,3.91.32,5.09,1.18a5,5,0,0,1,2.07,4.27c0,3.92-2.89,5.72-5.93,6.1a5.78,5.78,0,0,1-1.23,0l-2.1-.5v4.27c0,2.48.27,2.65,2.83,2.86v.94h-8.72v-.94c2.27-.21,2.53-.41,2.53-2.89V30.12c0-2.54-.26-2.71-2.35-2.89v-1Zm-2.1,10a5.38,5.38,0,0,0,1.8.29c1.39,0,3.74-.85,3.74-4.74,0-3.27-1.94-4.45-4-4.45a2.37,2.37,0,0,0-1.29.29c-.21.18-.3.5-.3,1.09Z"/><path class="cls-3" d="M216.76,30.94c-.59-1.85-1.59-4-4-4a2.89,2.89,0,0,0-3,3c0,1.83,1.21,2.8,3.71,4,2.8,1.41,5.16,3,5.16,6,0,3.27-2.77,5.84-7,5.84a9.12,9.12,0,0,1-2.91-.45A10.6,10.6,0,0,1,207,44.8a35.38,35.38,0,0,1-.86-4.84l1-.29c.53,1.85,2.13,5,5,5a3,3,0,0,0,3.19-3.27c0-1.89-1.42-3-3.63-4.13-2.62-1.36-5-2.92-5-5.92s2.45-5.57,6.48-5.57a13.43,13.43,0,0,1,4,.73c.12,1.09.3,2.33.53,4.19Z"/><path class="cls-3" d="M237.71,27.23c-1.94.21-2.44.65-3.53,2.42s-2,3.3-3.45,6a3.41,3.41,0,0,0-.53,2v3.86c0,2.6.24,2.77,2.89,3v.94H224v-.94c2.54-.18,2.8-.38,2.8-3V38a3.11,3.11,0,0,0-.47-1.68c-.88-1.68-2-3.63-3.65-6.6-1.15-2-1.57-2.27-3.25-2.48v-1h7.9v1c-2,.27-1.94.62-1.41,1.65,1.12,2.15,2.38,4.42,3.59,6.6.95-1.77,2.48-4.57,3.21-6.36.56-1.3.51-1.65-1.7-1.89v-1h6.71Z"/><path class="cls-3" d="M255.1,40.43a36.13,36.13,0,0,1-1.65,4.66,27.9,27.9,0,0,1-5.48.77c-7.63,0-10.9-5.1-10.9-9.76,0-6.13,4.68-10.28,11.58-10.28a22.11,22.11,0,0,1,5.3.79c.24,1.62.45,2.95.65,4.69l-1,.2c-.88-3.36-3-4.48-5.57-4.48-4.51,0-6.95,4.07-6.95,8.49,0,5.42,3,9.08,7.19,9.08,2.68,0,4.39-1.59,5.89-4.54Z"/><path class="cls-3" d="M276.56,27.23c-2.33.21-2.53.35-2.53,2.86V41.61c0,2.48.23,2.65,2.53,2.86v.94H268v-.94c2.38-.21,2.62-.38,2.62-2.86V36h-8.75v5.63c0,2.48.23,2.65,2.5,2.86v.94H255.9v-.94c2.24-.21,2.51-.38,2.51-2.86V30.09c0-2.51-.27-2.68-2.6-2.86v-1h8.43v1c-2.18.18-2.41.35-2.41,2.86v4.48h8.75V30.09c0-2.51-.21-2.65-2.45-2.86v-1h8.43Z"/><path class="cls-3" d="M278,45.41v-.94c2.27-.21,2.53-.38,2.53-2.89V30.12c0-2.51-.26-2.71-2.53-2.89v-1h8.45v1c-2.27.18-2.5.38-2.5,2.89V41.58c0,2.48.23,2.68,2.5,2.89v.94Z"/><path class="cls-3" d="M299.46,45.41v-.94c1.77-.26,2-.59,1.54-1.83-.33-1-.83-2.35-1.36-3.77h-5.86c-.39,1.09-.8,2.21-1.15,3.39-.5,1.59-.36,2,1.79,2.21v.94h-6.51v-.94c1.92-.26,2.3-.53,3.3-3.06l6-15.24,1.3-.35c1.88,5.12,3.74,10.43,5.66,15.5,1,2.59,1.35,2.91,3.24,3.15v.94Zm-2.65-14.76h-.09c-.85,2.27-1.65,4.57-2.47,6.78h4.89Z"/><path class="cls-3" d="M322.83,31.12a7.09,7.09,0,0,0-1.14-2.89c-.54-.59-1.18-.76-3.1-.76H317V41.58c0,2.45.27,2.68,2.95,2.89v.94h-9.2v-.94c2.54-.21,2.83-.44,2.83-2.89V27.47h-1.32c-2.42,0-3,.26-3.39.82a7.2,7.2,0,0,0-1.12,2.86h-1c.12-2,.3-4.1.36-5.63h.67c.45.68.83.74,1.66.74h11.78a1.82,1.82,0,0,0,1.62-.74h.68c0,1.27.15,3.71.3,5.54Z"/><path class="cls-3" d="M342.94,45.68c-.24,0-.59,0-.92,0-3.18-.15-4.36-.92-5.6-2.8-.85-1.3-1.77-3-2.62-4.48a2.07,2.07,0,0,0-2.15-1.24H331v4.45c0,2.42.26,2.68,2.53,2.89v.94H325v-.94c2.27-.21,2.59-.44,2.59-2.89V30.06c0-2.42-.26-2.65-2.47-2.83v-1h7.92c2.42,0,3.89.29,5.07,1.06a4.49,4.49,0,0,1,2,3.92c0,2.56-1.68,4-3.72,4.86.47.91,1.59,2.89,2.48,4.21a19.68,19.68,0,0,0,2.33,3.16,4,4,0,0,0,1.91,1.33Zm-11-9.64a4.59,4.59,0,0,0,3-.79,4.33,4.33,0,0,0,1.47-3.57c0-3.15-1.88-4.33-3.77-4.33a2.66,2.66,0,0,0-1.42.29c-.2.18-.26.5-.26,1.18V36Z"/><path class="cls-3" d="M360,27.23c-1.94.21-2.45.65-3.54,2.42s-2,3.3-3.44,6a3.33,3.33,0,0,0-.53,2v3.86c0,2.6.23,2.77,2.88,3v.94h-9.1v-.94c2.53-.18,2.8-.38,2.8-3V38a3.11,3.11,0,0,0-.47-1.68c-.89-1.68-2-3.63-3.66-6.6-1.15-2-1.56-2.27-3.24-2.48v-1h7.9v1c-2,.27-2,.62-1.42,1.65,1.12,2.15,2.39,4.42,3.6,6.6.94-1.77,2.47-4.57,3.21-6.36.56-1.3.5-1.65-1.71-1.89v-1H360Z"/><path class="cls-3" d="M66.47,9.3a4.68,4.68,0,0,0-1-2.22c-.37-.39-.93-.52-2.18-.52h-1V16.78c0,1.84.22,2,2.12,2.12v.76h-7V18.9c1.82-.15,2-.28,2-2.12V6.56h-.74c-1.77,0-2.16.24-2.48.58a5.41,5.41,0,0,0-.91,2.19h-.78c.09-1.58.22-3.16.26-4.26h.52c.34.5.62.54,1.23.54h8.69a1.43,1.43,0,0,0,1.25-.54H67c0,.9.13,2.81.24,4.19Z"/><path class="cls-3" d="M84.73,6.36c-1.68.16-1.81.29-1.81,2.12V16.8c0,1.82.17,1.95,1.81,2.1v.76H78.14V18.9c1.73-.15,1.88-.3,1.88-2.12v-4h-5.9v4c0,1.84.17,2,1.77,2.12v.76H69.45V18.9c1.58-.15,1.78-.28,1.78-2.12V8.48c0-1.83-.2-2-1.86-2.12V5.61h6.48v.75c-1.56.16-1.73.29-1.73,2.12v3.18H80V8.48c0-1.83-.17-2-1.77-2.12V5.61h6.48Z"/><path class="cls-3" d="M98.61,16.07c-.13,1-.59,2.94-.76,3.59h-11V18.9c1.84-.15,2-.28,2-2.12V8.48c0-1.88-.21-2-1.75-2.12V5.61H97.31c0,.39.13,1.9.22,3.24L96.75,9a4.55,4.55,0,0,0-.89-1.86c-.36-.39-1-.54-2.16-.54h-1c-.8,0-.89,0-.89.76V11.9h1.45c1.81,0,2.09-.11,2.4-1.62h.77v4.36h-.77c-.31-1.55-.56-1.64-2.4-1.64H91.78v3.74c0,1,.09,1.55.52,1.77a5.74,5.74,0,0,0,1.94.22,3.15,3.15,0,0,0,2.4-.69,8.44,8.44,0,0,0,1.21-2.12Z"/><path class="cls-3" d="M112.12,6.36c-1.52.16-1.71.31-1.71,2.14v7.14c0,2.5-.22,4.56-2.2,6.2a6.55,6.55,0,0,1-2.64,1.34l-.33-.8a3.1,3.1,0,0,0,2-2.62,27.84,27.84,0,0,0,.23-4.21v-7c0-1.83-.21-2-1.85-2.14V5.61h6.46Z"/><path class="cls-3" d="M128.87,12.48a7.37,7.37,0,1,1-14.74.17,7.22,7.22,0,0,1,7.58-7.37A7,7,0,0,1,128.87,12.48Zm-11.43-.24c0,3.7,1.64,6.83,4.4,6.83,2.06,0,3.72-2,3.72-6,0-4.3-1.75-6.9-4.24-6.9C119.14,6.19,117.44,8.5,117.44,12.24Z"/><path class="cls-3" d="M146,6.36c-1.18.07-1.72.52-1.83,1.28a17.27,17.27,0,0,0-.2,3V13c0,2.29-.34,4.11-1.55,5.4a5.52,5.52,0,0,1-4,1.58,6.08,6.08,0,0,1-3.83-1.12c-1.23-.95-1.79-2.55-1.79-5.08V8.7c0-2-.22-2.18-1.82-2.34V5.61h6.51v.75c-1.58.16-1.79.31-1.79,2.34v4.69c0,3.24,1.16,5.12,3.5,5.12,2.57,0,3.69-1.94,3.69-5.55V10.64a17.85,17.85,0,0,0-.21-3c-.11-.76-.63-1.19-2.1-1.28V5.61H146Z"/><path class="cls-3" d="M160.64,19.85l-.65,0c-2.72-.13-3.57-.74-4.43-2.1-.56-.88-1.15-2.05-1.77-3.17a1.51,1.51,0,0,0-1.43-1H152v3.16c0,1.77.22,2,1.84,2.14v.76h-6.53V18.9c1.62-.15,1.86-.37,1.86-2.14V8.46c0-1.73-.19-1.94-1.77-2.1V5.61h6.07a6.39,6.39,0,0,1,3.85.82,3.29,3.29,0,0,1,1.47,2.87c0,1.91-1.26,2.92-2.7,3.53.3.62,1.12,2.07,1.75,3.07a18.58,18.58,0,0,0,1.66,2.33,3.12,3.12,0,0,0,1.32.93Zm-8.13-7.09a3.1,3.1,0,0,0,2.12-.58,3.1,3.1,0,0,0,1-2.57c0-2.29-1.34-3.14-2.55-3.14a1.45,1.45,0,0,0-1,.22c-.15.13-.2.34-.2.8v5.27Z"/><path class="cls-3" d="M177,6.36c-1.16.07-1.62.35-1.72,1.35a28.79,28.79,0,0,0-.2,3.58v8.58h-1l-9-10.76H165V14a31.56,31.56,0,0,0,.17,3.5c.11,1,.48,1.36,2.08,1.43v.76H162V18.9c1.21-.09,1.71-.43,1.79-1.36A24.71,24.71,0,0,0,164,14V9.45c0-1.4,0-1.81-.45-2.31a2.22,2.22,0,0,0-1.8-.78V5.61h4L174,15.1h.08V11.29c0-1.9-.13-2.92-.17-3.54-.11-.93-.56-1.3-2.14-1.39V5.61H177Z"/><path class="cls-3" d="M185.52,19.66V18.9c1.27-.2,1.38-.45,1-1.41-.22-.64-.54-1.55-.87-2.44h-4.15c-.24.67-.52,1.45-.78,2.31-.3,1-.26,1.34,1.32,1.54v.76h-4.84l0-.76c1.43-.17,1.69-.41,2.4-2.23l4.43-11.1,1.1-.29c1.39,3.79,2.73,7.55,4.13,11.26.74,1.91,1,2.19,2.38,2.36v.76ZM183.68,9.24h-.06c-.61,1.58-1.15,3.13-1.71,4.67h3.37Z"/><path class="cls-3" d="M204.71,16c-.17.91-.63,3.07-.8,3.66H193.39V18.9c1.88-.15,2.09-.3,2.09-2.12V8.5c0-1.85-.21-2-1.86-2.14V5.61h6.62v.75c-1.67.16-1.86.29-1.86,2.14v8.43c0,1,.09,1.41.54,1.6a4.74,4.74,0,0,0,1.62.2,2.75,2.75,0,0,0,2.2-.74A6.9,6.9,0,0,0,204,15.76Z"/><path class="cls-3" d="M226.62,12.48a7.37,7.37,0,1,1-14.73.17,7.22,7.22,0,0,1,7.58-7.37A7,7,0,0,1,226.62,12.48Zm-11.43-.24c0,3.7,1.65,6.83,4.41,6.83,2.05,0,3.72-2,3.72-6,0-4.3-1.75-6.9-4.24-6.9C216.9,6.19,215.19,8.5,215.19,12.24Z"/><path class="cls-3" d="M238.47,9a4.76,4.76,0,0,0-.87-1.85c-.45-.48-1-.63-2.24-.63h-1.08c-.76,0-.85,0-.85.76v4.77h1.75c1.95,0,2.14-.19,2.4-1.58h.78v4.31h-.78c-.23-1.47-.45-1.65-2.4-1.65h-1.75v3.42c0,2,.18,2.16,2.06,2.31v.76h-6.75V18.9c1.58-.15,1.8-.28,1.8-2.31v-8c0-1.94-.22-2.09-1.8-2.22V5.61H239c0,.36.13,2,.24,3.28Z"/></g></g></svg>