<svg xmlns="http://www.w3.org/2000/svg" viewBox="0 0 369.25 46.81"><defs><style>.cls-1{fill:#900;}.cls-2{fill:#fff;}.cls-3{fill:#369;}</style></defs><g id="Layer_2" data-name="Layer 2"><g id="Layer_1-2" data-name="Layer 1"><rect class="cls-1" width="46.81" height="46.81"/><rect class="cls-2" x="6.8" y="6.8" width="33.21" height="33.21"/><rect class="cls-3" x="8.13" y="8.13" width="30.55" height="30.55"/><path class="cls-1" d="M206.42,36c-.13-1-.22-1.66-.3-2.18a5.38,5.38,0,0,0-2-.44c-2.07,0-3.23,1.11-3.23,2.75a3,3,0,0,0,2.23,2.62l.54.24c.86.39,1.37.81,1.35,1.55a1.3,1.3,0,0,1-1.37,1.37c-1.3,0-2.19-1.53-2.54-2.6l-.54.14a18.24,18.24,0,0,0,.44,2.42,4.72,4.72,0,0,0,2.43.68c2,0,3.39-1.1,3.37-2.82,0-1.49-1.09-2.16-2.46-2.75l-.45-.2c-.67-.28-1.33-.63-1.33-1.48a1.21,1.21,0,0,1,1.24-1.25c1.05,0,1.68.94,2,2.1Z"/><path class="cls-1" d="M193.31,38V35c0-.5.14-.66.7-.66a1.66,1.66,0,0,1,1.72,1.88,1.75,1.75,0,0,1-.63,1.49,2,2,0,0,1-1.28.32Zm5.82,4a2.24,2.24,0,0,1-.86-.51,11,11,0,0,1-1-1.33c-.42-.63-1-1.57-1.23-2a2.39,2.39,0,0,0,1.76-2.24,2,2,0,0,0-.95-1.79,4.11,4.11,0,0,0-2.21-.44h-4.43v.57c1.07.09,1.17.17,1.17,1.42v4.69c0,1.26-.12,1.35-1.23,1.42v.59h4.35v-.59c-1.1-.09-1.21-.2-1.21-1.44V38.62h.26a.87.87,0,0,1,1,.61,17.46,17.46,0,0,0,1.16,2c.49.76,1,1.2,2.82,1.2h.56Z"/><path class="cls-1" d="M188,39.9a4.09,4.09,0,0,1-.72,1.27c-.31.37-.75.48-1.52.48a2.49,2.49,0,0,1-1.32-.2c-.21-.13-.29-.48-.29-1.26v-2h1.1c1,0,1.12.16,1.26,1h.58V36.43h-.58c-.14.88-.26,1-1.26,1h-1.1V34.88c0-.5,0-.54.51-.54h.75c.88,0,1.21.13,1.43.43a3.19,3.19,0,0,1,.5,1.09l.56,0c-.07-.89-.13-1.81-.14-2.18H181v.59c1.08.07,1.19.15,1.19,1.46v4.56c0,1.31-.11,1.4-1.3,1.49v.59h7.21c.11-.37.38-1.73.47-2.38Z"/><path class="cls-1" d="M173.4,35.32c0-.46,0-.72.14-.81a1.26,1.26,0,0,1,.84-.22c1.69,0,3,1.07,3,3.63,0,2.35-1.11,3.73-2.88,3.73-.82,0-1-.31-1-1.4Zm-3.12-1.68v.57c1,.09,1.16.17,1.16,1.46v4.65c0,1.24-.16,1.35-1.27,1.42v.59H174c3.06,0,5.53-1.44,5.53-4.65a3.91,3.91,0,0,0-1.11-2.84,5.3,5.3,0,0,0-3.8-1.2Z"/><path class="cls-1" d="M163.17,38V35c0-.5.14-.66.71-.66a1.66,1.66,0,0,1,1.71,1.88,1.75,1.75,0,0,1-.63,1.49,2,2,0,0,1-1.28.32ZM169,42a2.17,2.17,0,0,1-.86-.51,11,11,0,0,1-1-1.33c-.42-.63-1-1.57-1.23-2a2.39,2.39,0,0,0,1.76-2.24,2,2,0,0,0-1-1.79,4.11,4.11,0,0,0-2.21-.44h-4.43v.57c1.07.09,1.17.17,1.17,1.42v4.69c0,1.26-.12,1.35-1.23,1.42v.59h4.35v-.59c-1.1-.09-1.21-.2-1.21-1.44V38.62h.26a.87.87,0,0,1,.95.61,19.06,19.06,0,0,0,1.16,2c.49.76,1,1.2,2.82,1.2h.56Z"/><path class="cls-1" d="M154.24,34.07c1.61,0,2.49,2.06,2.49,4.19,0,2.67-1,3.65-2.19,3.65-1.48,0-2.54-1.68-2.54-4.14s1.08-3.7,2.22-3.7Zm.14-.67a4.54,4.54,0,0,0-4.59,4.76,4.37,4.37,0,0,0,4.59,4.41,4.43,4.43,0,0,0,4.56-4.7,4.33,4.33,0,0,0-4.54-4.47Z"/><path class="cls-1" d="M148.05,36c-.12-1-.21-1.66-.3-2.18a5.32,5.32,0,0,0-2-.44c-2.07,0-3.22,1.11-3.22,2.75a3,3,0,0,0,2.22,2.62l.55.24c.85.39,1.36.81,1.35,1.55a1.3,1.3,0,0,1-1.37,1.37c-1.3,0-2.19-1.53-2.54-2.6l-.55.14a20.09,20.09,0,0,0,.44,2.42,4.73,4.73,0,0,0,2.44.68c2,0,3.38-1.1,3.36-2.82,0-1.49-1.08-2.16-2.45-2.75l-.46-.2c-.66-.28-1.33-.63-1.33-1.48a1.21,1.21,0,0,1,1.25-1.25c1,0,1.68.94,2,2.1Z"/><path class="cls-1" d="M141,42.33v-.59c-1.11-.07-1.21-.16-1.21-1.44V35.67c0-1.29.1-1.37,1.21-1.44v-.59h-4.39v.59c1.09.09,1.21.17,1.21,1.44v4.65c0,1.26-.12,1.35-1.21,1.42v.59Z"/><path class="cls-1" d="M127,32.33c0-.61,0-.89.19-1A2,2,0,0,1,128.4,31a4.15,4.15,0,0,1,2.9,1,5.31,5.31,0,0,1,1.59,4.16c0,3.15-1.59,5.37-4.28,5.37-1.23,0-1.61-.43-1.61-1.77Zm-3.49-2V31c1.28.11,1.44.22,1.44,1.8v7.19c0,1.56-.16,1.67-1.6,1.8v.59h4.39A8.22,8.22,0,0,0,133,40.8a6,6,0,0,0,2.18-4.93,5.43,5.43,0,0,0-1.53-3.95c-1.1-1.1-2.79-1.58-5-1.58Z"/><path class="cls-1" d="M118.49,33.14c-.14-1.16-.24-1.93-.31-2.62a7.5,7.5,0,0,0-2.37-.46A3.53,3.53,0,0,0,112,33.55c0,1.88,1.44,2.86,3,3.71,1.32.72,2.16,1.4,2.16,2.58a1.84,1.84,0,0,1-1.9,2c-1.71,0-2.66-2-3-3.15l-.59.18a22.77,22.77,0,0,0,.51,3,5.44,5.44,0,0,0,1,.38,5.18,5.18,0,0,0,1.73.28C117.37,42.61,119,41,119,39s-1.4-2.88-3.07-3.77c-1.49-.77-2.21-1.38-2.21-2.53a1.77,1.77,0,0,1,1.79-1.88c1.46,0,2,1.33,2.4,2.49Z"/><path class="cls-1" d="M110.74,30.34h-4.23v.59c1.27.07,1.63.37,1.74,1.16,0,.53.12,1.4.12,3.06v3.7h-.05l-6.93-8.51h-3v.59a1.77,1.77,0,0,1,1.5.68c.34.42.36.68.36,1.94v3.93a27,27,0,0,1-.15,3.08c-.08.83-.5,1.11-1.49,1.18v.59h4.25v-.59c-1.26-.07-1.6-.37-1.68-1.23a26.84,26.84,0,0,1-.13-3V33.14h0l7.36,9.38h.74V35.15a24.45,24.45,0,0,1,.14-3.08c.09-.83.47-1.09,1.42-1.14Z"/><path class="cls-1" d="M97.08,39c-.9,1.85-1.91,2.85-3.51,2.85-2.49,0-4.28-2.29-4.28-5.69,0-2.77,1.46-5.31,4.14-5.31,1.54,0,2.79.7,3.31,2.8l.62-.13c-.12-1.09-.25-1.92-.39-2.93a12.6,12.6,0,0,0-3.15-.5c-4.11,0-6.89,2.6-6.89,6.44,0,2.92,1.94,6.11,6.48,6.11a16.07,16.07,0,0,0,3.26-.48,25,25,0,0,0,1-2.9Z"/><path class="cls-1" d="M76.91,38V35c0-.5.14-.66.7-.66a1.66,1.66,0,0,1,1.72,1.88,1.75,1.75,0,0,1-.63,1.49,2,2,0,0,1-1.28.32Zm5.82,4a2.17,2.17,0,0,1-.86-.51,11,11,0,0,1-1-1.33c-.42-.63-1-1.57-1.22-2a2.4,2.4,0,0,0,1.75-2.24,2,2,0,0,0-1-1.79,4.11,4.11,0,0,0-2.21-.44H73.83v.57c1.06.09,1.17.17,1.17,1.42v4.69c0,1.26-.12,1.35-1.23,1.42v.59h4.35v-.59c-1.1-.09-1.21-.2-1.21-1.44V38.62h.26a.87.87,0,0,1,1,.61,19.06,19.06,0,0,0,1.16,2c.49.76,1,1.2,2.82,1.2h.56Z"/><path class="cls-1" d="M68.39,34.07c1.61,0,2.49,2.06,2.49,4.19,0,2.67-1,3.65-2.2,3.65-1.47,0-2.54-1.68-2.54-4.14s1.09-3.7,2.23-3.7Zm.14-.67a4.54,4.54,0,0,0-4.6,4.76,4.38,4.38,0,0,0,4.6,4.41,4.43,4.43,0,0,0,4.56-4.7,4.33,4.33,0,0,0-4.54-4.47Z"/><path class="cls-1" d="M63.11,35.87C63,34.93,63,34,63,33.64H56.19v.59c1.07.07,1.17.17,1.17,1.42v4.71c0,1.2-.1,1.31-1.17,1.38v.59h4.5v-.59c-1.24-.07-1.37-.18-1.37-1.4V38.46h1.2c1.19,0,1.31,0,1.47,1.11h.56V36.65H62c-.19.94-.3,1-1.45,1H59.32V34.86c0-.52,0-.5.48-.54h.86c.87,0,1.21.19,1.42.48A4,4,0,0,1,62.55,36Z"/><path class="cls-1" d="M369.25,11.85h-4.76v.74c1.38.07,1.8.28,1.87,1.12A27.91,27.91,0,0,1,366.5,17v3.1h-.05l-6.8-8.21h-3.5v.74c1.67.1,2.09.48,2.09,2.61v3.43a26,26,0,0,1-.17,3.3c-.1.79-.54,1-1.65,1.13v.71h4.78v-.71c-1.33-.11-1.8-.34-1.89-1.13a27.52,27.52,0,0,1-.15-3.3v-4h0l7.34,9.24h.9V17a29.72,29.72,0,0,1,.14-3.3c.08-.79.54-1,1.68-1.07Z"/><path class="cls-1" d="M348.86,12.36c2.44,0,3.82,2.89,3.82,5.81,0,3.71-1.6,5.09-3.38,5.09-2.26,0-3.89-2.38-3.89-5.78s1.68-5.12,3.43-5.12Zm.22-.85A6.16,6.16,0,0,0,342.91,18a6,6,0,0,0,6.17,6.06,6.06,6.06,0,0,0,6.11-6.45,5.92,5.92,0,0,0-6.08-6.14Z"/><path class="cls-1" d="M341.64,23.77v-.71c-1.58-.16-1.7-.26-1.7-2.08V14.66c0-1.84.15-1.94,1.7-2.07v-.74h-5.59v.74c1.53.13,1.7.23,1.7,2.07V21c0,1.82-.17,1.92-1.7,2.08v.71Z"/><path class="cls-1" d="M334.47,11.85h-4.76v.74c1.39.07,1.8.28,1.87,1.12a27.13,27.13,0,0,1,.15,3.25v3.1h-.05l-6.81-8.21h-3.5v.74c1.67.1,2.09.48,2.09,2.61v3.43a26,26,0,0,1-.17,3.3c-.1.79-.54,1-1.65,1.13v.71h4.79v-.71c-1.34-.11-1.8-.34-1.9-1.13a27.52,27.52,0,0,1-.15-3.3v-4h0l7.34,9.24h.9V17a26.68,26.68,0,0,1,.15-3.3c.07-.79.53-1,1.67-1.07Z"/><path class="cls-1" d="M314.69,18.91h-3.24l1.61-4.43h.05Zm5.37,4.86v-.71c-1.12-.11-1.58-.29-2.12-1.72l-3.81-9.85-.85.2-3.65,9.24c-.71,1.82-1.17,2-2.29,2.13v.71h4.45v-.71l-.58-.11c-.7-.1-.95-.3-.68-1.25.19-.69.39-1.25.58-1.77h3.94l.68,1.85c.32.89.17,1.1-.53,1.2l-.47.08v.71Z"/><path class="cls-1" d="M301.49,13.74c0-.87,0-1.1,1.16-1.1a2.47,2.47,0,0,1,2.6,2.76c0,2.48-1.6,2.87-2.4,2.87a3.64,3.64,0,0,1-1.36-.26Zm-3.73-1.89v.74c1.44.13,1.59.2,1.59,2.07v6.45c0,1.66-.15,1.79-1.68,1.95v.71h5.74v-.71c-1.76-.16-1.92-.29-1.92-2V18.86l1.43.38a3.56,3.56,0,0,0,.92,0c2.12-.31,3.82-1.51,3.82-3.84,0-2.48-1.73-3.53-4.4-3.53Z"/><path class="cls-1" d="M296,11.85h-4L288.3,20l-3.46-8.11h-3.91v.74c1.67.13,1.85.25,1.67,2.3l-.26,3.64c-.15,1.63-.27,2.63-.39,3.35s-.54,1.07-1.63,1.18v.71h4.57v-.71c-1.26-.13-1.65-.36-1.68-1.18a23.7,23.7,0,0,1,.07-3.33l.25-4.71h.05l3.69,9.73h.56l4.26-9.91h.07L292.11,21c0,1.77-.15,1.87-1.72,2v.71H296v-.71c-1.67-.16-1.74-.26-1.8-2l-.11-6.45c-.05-1.77.07-1.89,1.84-2Z"/><path class="cls-1" d="M273.08,12.36c2.43,0,3.81,2.89,3.81,5.81,0,3.71-1.6,5.09-3.38,5.09-2.26,0-3.89-2.38-3.89-5.78s1.68-5.12,3.43-5.12Zm.21-.85A6.16,6.16,0,0,0,267.12,18a6,6,0,0,0,6.17,6.06,6.06,6.06,0,0,0,6.11-6.45,5.92,5.92,0,0,0-6.08-6.14Z"/><path class="cls-1" d="M264.72,19.24c-1.24,2.54-2.55,3.94-5,3.94-3.65,0-6.25-3.25-6.25-8,0-3.86,2.12-7.44,6.08-7.44,2.5,0,4,1,4.69,3.81l.76-.18c-.15-1.41-.32-2.48-.51-3.92a18.64,18.64,0,0,0-4.31-.69c-5.52,0-9.43,3.56-9.43,8.93,0,4.05,2.67,8.48,8.8,8.48a19.66,19.66,0,0,0,4.47-.7,28,28,0,0,0,1.39-3.94Z"/><path class="cls-1" d="M245,20.47a5.16,5.16,0,0,1-1,1.79c-.44.51-1,.67-2.24.67a3.77,3.77,0,0,1-1.87-.28c-.29-.18-.42-.67-.42-1.67V18.09h1.71c1.46,0,1.58.21,1.8,1.48h.7V15.68h-.7c-.22,1.26-.34,1.41-1.8,1.41h-1.71V13.46c0-.69.05-.74.71-.74h1.22c1.26,0,1.67.18,2,.61a3.94,3.94,0,0,1,.68,1.53l.68,0c-.1-1.21-.17-2.46-.19-3H235.7v.74c1.54.1,1.66.23,1.66,2.07v6.27c0,1.82-.12,2-1.83,2.13v.71h9.56c.14-.51.51-2.4.66-3.2Z"/><path class="cls-1" d="M225.58,17.83V13.64c0-.74.12-1,1.09-1a2.37,2.37,0,0,1,2.53,2.62,2.43,2.43,0,0,1-.95,2.12,3,3,0,0,1-1.75.43Zm7.9,5.48a2.92,2.92,0,0,1-1.29-.79,12.09,12.09,0,0,1-1.36-1.82c-.56-.84-1.34-2.15-1.63-2.71a3.24,3.24,0,0,0,2.33-3.07,2.71,2.71,0,0,0-1.24-2.43,5.09,5.09,0,0,0-2.91-.64h-5.6v.74c1.51.1,1.66.18,1.66,2V21c0,1.79-.15,1.92-1.73,2v.71h5.59v-.71c-1.58-.16-1.72-.29-1.72-2V18.65h.48a1.4,1.4,0,0,1,1.56.92c.39.7,1,1.87,1.58,2.69.7,1.08,1.46,1.67,3.57,1.67h.61Z"/><path class="cls-1" d="M214.84,18.91H211.6l1.61-4.43h0Zm5.37,4.86v-.71c-1.12-.11-1.58-.29-2.12-1.72l-3.81-9.85-.85.2-3.65,9.24c-.7,1.82-1.17,2-2.29,2.13v.71h4.45v-.71l-.58-.11c-.7-.1-1-.3-.68-1.25.2-.69.39-1.25.58-1.77h3.94l.68,1.85c.32.89.17,1.1-.53,1.2l-.46.08v.71Z"/><path class="cls-1" d="M205.8,19.24c-1.24,2.54-2.55,3.94-5,3.94-3.65,0-6.25-3.25-6.25-8,0-3.86,2.12-7.44,6.08-7.44,2.5,0,4,1,4.69,3.81l.76-.18c-.15-1.41-.32-2.48-.51-3.92a18.64,18.64,0,0,0-4.31-.69c-5.52,0-9.43,3.56-9.43,8.93,0,4.05,2.67,8.48,8.8,8.48a19.56,19.56,0,0,0,4.47-.7,28,28,0,0,0,1.39-3.94Z"/><path class="cls-1" d="M187.07,11.85h-4.38v.74l.61.07c.68.13.8.34.51,1-.36.84-1.14,2.4-1.92,3.81-.61-1.07-1.53-2.79-2.14-4-.26-.49-.22-.72.29-.82l.73-.13v-.74h-5.18v.74c1.12.13,1.39.28,2,1.38,1,1.74,1.63,2.84,2.21,3.91a2.13,2.13,0,0,1,.34,1.28v1.9c0,1.69-.09,1.84-1.87,2v.71h6v-.71c-1.78-.16-1.92-.34-1.92-2V18.91a2.06,2.06,0,0,1,.31-1.13A33,33,0,0,1,184.81,14a2.32,2.32,0,0,1,2.26-1.41Z"/><path class="cls-1" d="M167.85,17.83V13.64c0-.74.12-1,1.09-1a2.37,2.37,0,0,1,2.53,2.62,2.43,2.43,0,0,1-.95,2.12,3,3,0,0,1-1.75.43Zm7.9,5.48a2.92,2.92,0,0,1-1.29-.79,12.09,12.09,0,0,1-1.36-1.82c-.56-.84-1.34-2.15-1.63-2.71a3.23,3.23,0,0,0,2.33-3.07,2.71,2.71,0,0,0-1.24-2.43,5.09,5.09,0,0,0-2.91-.64h-5.6v.74c1.51.1,1.66.18,1.66,2V21c0,1.79-.15,1.92-1.73,2v.71h5.59v-.71c-1.58-.16-1.72-.29-1.72-2V18.65h.48a1.4,1.4,0,0,1,1.56.92c.39.7,1,1.87,1.58,2.69.7,1.08,1.46,1.67,3.57,1.67h.61Z"/><path class="cls-1" d="M157.11,18.91h-3.24l1.61-4.43h.05Zm5.37,4.86v-.71c-1.12-.11-1.58-.29-2.11-1.72l-3.82-9.85-.85.2-3.65,9.24c-.7,1.82-1.17,2-2.28,2.13v.71h4.44v-.71l-.58-.11c-.7-.1-.95-.3-.68-1.25.19-.69.39-1.25.58-1.77h3.94l.68,1.85c.32.89.17,1.1-.53,1.2l-.46.08v.71Z"/><path class="cls-1" d="M148.13,11.85h-4L140.47,20,137,11.85H133.1v.74c1.68.13,1.85.25,1.68,2.3l-.27,3.64c-.14,1.63-.27,2.63-.39,3.35s-.53,1.07-1.63,1.18v.71h4.58v-.71c-1.27-.13-1.66-.36-1.68-1.18a23.7,23.7,0,0,1,.07-3.33l.24-4.71h.05l3.7,9.73H140l4.25-9.91h.07l0,7.37c0,1.77-.15,1.87-1.73,2v.71h5.64v-.71c-1.68-.16-1.75-.26-1.8-2l-.12-6.45c-.05-1.77.07-1.89,1.85-2Z"/><path class="cls-1" d="M130.82,23.77v-.71c-1.58-.16-1.71-.26-1.71-2.08V14.66c0-1.84.15-1.94,1.71-2.07v-.74h-5.59v.74c1.53.13,1.7.23,1.7,2.07V21c0,1.82-.17,1.92-1.7,2.08v.71Z"/><path class="cls-1" d="M115.2,17.83V13.64c0-.74.12-1,1.09-1a2.37,2.37,0,0,1,2.53,2.62,2.43,2.43,0,0,1-.95,2.12,3,3,0,0,1-1.75.43Zm7.9,5.48a2.92,2.92,0,0,1-1.29-.79,12.09,12.09,0,0,1-1.36-1.82c-.56-.84-1.34-2.15-1.63-2.71a3.23,3.23,0,0,0,2.33-3.07,2.72,2.72,0,0,0-1.23-2.43,5.15,5.15,0,0,0-2.92-.64h-5.6v.74c1.51.1,1.66.18,1.66,2V21c0,1.79-.15,1.92-1.73,2v.71h5.59v-.71c-1.58-.16-1.72-.29-1.72-2V18.65h.48a1.4,1.4,0,0,1,1.56.92c.39.7,1,1.87,1.58,2.69.71,1.08,1.46,1.67,3.57,1.67H123Z"/><path class="cls-1" d="M102,9.41c0-.66.08-1,.25-1.12A1.92,1.92,0,0,1,103.53,8c1.92,0,3.55,1.15,3.55,3.94,0,3.28-1.92,4.12-3.38,4.12a4.7,4.7,0,0,1-1.68-.28ZM97.77,7.14v.74c1.77.15,2,.25,2,2.51V20.55c0,2.12-.22,2.33-2.14,2.48v.74h6.76V23c-2.16-.15-2.36-.31-2.36-2.46V16.63l1.78.49a5.67,5.67,0,0,0,1.07,0,5.12,5.12,0,0,0,4.76-5.27A4.32,4.32,0,0,0,108,8.19a6.63,6.63,0,0,0-4.11-1Z"/><path class="cls-1" d="M92,20.47a5,5,0,0,1-1,1.79c-.44.51-1,.67-2.24.67a3.82,3.82,0,0,1-1.87-.28c-.29-.18-.41-.67-.41-1.67V18.09h1.7c1.46,0,1.58.21,1.8,1.48h.7V15.68H90c-.22,1.26-.34,1.41-1.8,1.41h-1.7V13.46c0-.69,0-.74.7-.74H88.4c1.26,0,1.68.18,2,.61a3.94,3.94,0,0,1,.68,1.53l.68,0c-.09-1.21-.17-2.46-.19-3H82.63v.74c1.54.1,1.66.23,1.66,2.07v6.27c0,1.82-.12,2-1.82,2.13v.71H92c.15-.51.51-2.4.66-3.2Z"/><path class="cls-1" d="M80.82,23.77v-.71c-1.53-.16-1.7-.29-1.7-2.13V14.69c0-1.87.17-2,1.7-2.15v-.69H75.33v.74c1.46.13,1.6.23,1.6,2.1v2.25H71.46V14.69c0-1.9.15-2,1.61-2.1v-.74h-5.6v.74c1.63.13,1.8.23,1.8,2.1v6.24c0,1.84-.17,2-1.72,2.13v.71H73v-.71c-1.44-.16-1.56-.29-1.56-2.13V18h5.47v2.94c0,1.84-.14,2-1.65,2.13v.71Z"/><path class="cls-1" d="M67.75,11.1c-.12-1.51-.24-3.45-.24-4.6H67a1.27,1.27,0,0,1-1.24.64H56.08c-.68,0-1,0-1.33-.64h-.51c-.05,1.38-.2,3.09-.3,4.68h.76a7.83,7.83,0,0,1,.8-2.33c.32-.56.8-.79,2.82-.79h1.39V20.57c0,2.05-.2,2.31-2.39,2.46v.74h7.15V23c-2.28-.15-2.48-.41-2.48-2.46V8.06H63.6c1.77,0,2.19.2,2.6.77A6.38,6.38,0,0,1,67,11.18Z"/></g></g></svg>