<svg xmlns="http://www.w3.org/2000/svg" viewBox="0 0 34 45" width="34" height="45">
	<defs>
		<clipPath clipPathUnits="userSpaceOnUse" id="cp1">
			<path d="M-287 -146L1153 -146L1153 16310L-287 16310Z" />
		</clipPath>
	</defs>
	<style>
		tspan { white-space:pre }
		.shp0 { fill: none;stroke: #535353;stroke-width: 2 } 
		.shp1 { fill: none;stroke: #535353;stroke-linecap:round;stroke-width: 2 } 
		.shp2 { fill: #535353 } 
	</style>
	<g id="PPP-Web-Design_Article-UnGated_JCP" clip-path="url(#cp1)">
		<g id="Group 13">
			<path id="Stroke 1" class="shp0" d="M25.64 35.04L17.8 42.65C17.32 43.12 16.54 43.12 16.06 42.65L8.36 35.17C7.59 34.42 8.13 33.14 9.22 33.13L24.76 33C25.86 32.99 26.42 34.28 25.64 35.04Z" />
			<path id="Stroke 3" class="shp1" d="M17 32L17 21" />
			<path id="Fill 5" fill-rule="evenodd" class="shp2" d="M7.68 9.51L9.45 9.51C9.7 9.51 9.9 9.58 10.05 9.71C10.19 9.85 10.26 10.04 10.26 10.3L10.26 10.81C10.26 11.07 10.19 11.26 10.05 11.4C9.9 11.53 9.7 11.6 9.45 11.6L7.68 11.6L7.68 9.51ZM7.68 16L7.68 13.11L9.65 13.11C10.01 13.11 10.34 13.05 10.63 12.92C10.92 12.8 11.16 12.62 11.36 12.4C11.57 12.18 11.72 11.91 11.83 11.6C11.94 11.28 12 10.94 12 10.56C12 10.18 11.94 9.84 11.83 9.52C11.72 9.2 11.57 8.93 11.36 8.71C11.16 8.49 10.92 8.31 10.63 8.19C10.34 8.06 10.01 8 9.65 8L6 8L6 16L7.68 16Z" />
			<path id="Fill 7" fill-rule="evenodd" class="shp2" d="M15.87 14.45L15.87 9.55L17.23 9.55C17.79 9.55 18.22 9.69 18.54 9.98C18.86 10.27 19.02 10.74 19.02 11.38L19.02 12.62C19.02 13.26 18.86 13.73 18.54 14.02C18.22 14.31 17.79 14.45 17.23 14.45L15.87 14.45ZM14 16L17.23 16C17.79 16 18.31 15.92 18.78 15.75C19.24 15.58 19.64 15.33 19.97 15C20.3 14.66 20.55 14.25 20.73 13.75C20.91 13.25 21 12.66 21 12C21 11.33 20.91 10.75 20.73 10.25C20.55 9.75 20.3 9.33 19.97 9C19.64 8.67 19.24 8.42 18.78 8.25C18.31 8.08 17.79 8 17.23 8L14 8L14 16Z" />
			<path id="Fill 9" class="shp2" d="M23 16L23 8L28 8L28 9.55L24.64 9.55L24.64 11.17L27.5 11.17L27.5 12.72L24.64 12.72L24.64 16L23 16Z" />
			<path id="Stroke 11" class="shp1" d="M6.26 41L2.99 41C1.89 41 1 40.11 1 39L1 3C1 1.89 1.89 1 2.99 1L31.01 1C32.11 1 33 1.89 33 3L33 39C33 40.11 32.11 41 31.01 41L27.4 41" />
		</g>
	</g>
</svg>