<svg xmlns="http://www.w3.org/2000/svg" viewBox="0 0 298.43 46.9"><defs><style>.cls-1{fill:#369;}.cls-2{fill:#fff;}.cls-3{fill:#900;}</style></defs><g id="Layer_2" data-name="Layer 2"><g id="Layer_1-2" data-name="Layer 1"><rect class="cls-1" width="46.89" height="46.9"/><rect class="cls-2" x="6.79" y="6.79" width="33.32" height="33.32"/><rect class="cls-3" x="8.16" y="8.16" width="30.57" height="30.57"/><path class="cls-3" d="M66.72,15.54a7.67,7.67,0,0,1,4.34,1,4.13,4.13,0,0,1,1.82,3.63c0,3.59-3,5.08-5.58,5.09a6.73,6.73,0,0,1-.72,0l-1.53-.4v3.53c0,2.07.18,2.15,2.37,2.37v.83H59.93v-.83c2-.23,2.14-.33,2.14-2.39V18.81c0-2.12-.25-2.28-2.14-2.43v-.84Zm-1.67,8.33a3.59,3.59,0,0,0,1.48.28c1.32,0,3.24-.73,3.24-3.94,0-2.74-1.6-3.72-3.37-3.72a1.76,1.76,0,0,0-1.11.27c-.18.16-.24.42-.24.89Z"/><path class="cls-3" d="M83.53,19.5c-.46-1.59-1.16-3.33-3.44-3.33a2.34,2.34,0,0,0-2.45,2.5c0,1.48,1,2.31,3.1,3.39,2.76,1.38,4.29,2.61,4.29,5,0,2.8-2.35,4.87-5.76,4.87a12.87,12.87,0,0,1-4-.78c-.16-.61-.54-2.87-.71-4.09l.89-.21c.5,1.59,1.77,4.09,4.24,4.09a2.43,2.43,0,0,0,2.58-2.63c0-1.6-.93-2.41-3-3.55C76.63,23.39,75,22.18,75,19.71s2-4.51,5.5-4.51a17.74,17.74,0,0,1,3.44.45c.1.9.24,2.08.44,3.66Z"/><path class="cls-3" d="M102.31,16.38c-1.63.18-2.1.5-3,2s-1.79,3.1-3,5.48a2.54,2.54,0,0,0-.3,1.36V28.3c0,2.11.2,2.21,2.32,2.45v.83H90.77v-.83c2-.27,2.22-.33,2.22-2.45v-3a2.2,2.2,0,0,0-.35-1.24C91.88,22.59,91,21,89.56,18.48c-.93-1.63-1.26-1.94-2.77-2.1v-.84h6.82v.84c-1.7.23-1.63.55-1.2,1.4.89,1.71,2,3.77,3,5.59.79-1.48,2-4,2.74-5.41.5-1.07.35-1.37-1.49-1.58v-.84h5.69Z"/><path class="cls-3" d="M118.68,27.44a32,32,0,0,1-1.37,3.89,21.62,21.62,0,0,1-4.53.62c-6.38,0-9.21-4.15-9.21-8.21,0-5.08,3.87-8.54,9.65-8.54a26.17,26.17,0,0,1,4.67.58c.11,1.14.28,2.85.47,4l-.91.17c-.51-1.83-1.2-2.78-2.49-3.3a6.49,6.49,0,0,0-2.3-.38c-3.75,0-5.68,3-5.68,6.93,0,4.6,2.37,7.66,6,7.66,2.23,0,3.56-1.11,4.87-3.74Z"/><path class="cls-3" d="M137.41,16.38c-2,.2-2.15.34-2.15,2.39v9.61c0,2.05.21,2.18,2.15,2.37v.83h-7.27v-.83c2-.25,2.15-.32,2.15-2.37V23.64H125v4.74c0,2.05.22,2.15,2.13,2.37v.83h-7.25v-.83c1.89-.21,2.14-.32,2.14-2.37V18.77c0-2.05-.22-2.23-2.14-2.39v-.84h7.25v.84c-1.91.17-2.13.34-2.13,2.39v3.67h7.29V18.77c0-2.05-.26-2.2-2.15-2.39v-.84h7.27Z"/><path class="cls-3" d="M138.63,31.58v-.83c1.93-.19,2.14-.32,2.14-2.41V18.81c0-2.09-.23-2.26-2.14-2.43v-.84h7.27v.84c-1.92.19-2.15.34-2.15,2.43v9.53c0,2.08.22,2.2,2.15,2.41v.83Z"/><path class="cls-3" d="M158.49,31.58v-.83c1.58-.22,1.65-.48,1.3-1.5-.27-.82-.7-2-1.12-3.16h-5c-.31.89-.66,1.84-.95,2.69-.52,1.57,0,1.77,2,2v.83h-6v-.83c1.56-.2,1.95-.41,2.8-2.53l5.12-12.83,1.05-.19c1.57,4.27,3.26,8.75,4.84,12.92.87,2.25,1.09,2.43,2.75,2.63v.83Zm-2.27-12.27c-.74,1.9-1.48,3.76-2.14,5.61h4.16Z"/><path class="cls-3" d="M180.1,19.67a8.09,8.09,0,0,0-1-2.28c-.42-.57-.64-.76-2.06-.76h-1.89V28.37c0,2,.23,2.21,2.48,2.38v.83h-7.84v-.83c2.17-.17,2.38-.35,2.38-2.38V16.63h-1.77c-1.37,0-1.76.19-2.21.84a9.48,9.48,0,0,0-.95,2.22h-.87c.17-1.7.33-3.49.39-4.75h.68c.37.58.66.6,1.38.6h9.84a1.49,1.49,0,0,0,1.37-.6h.67c0,1.08.11,3.12.24,4.66Z"/><path class="cls-3" d="M197.51,31.75c-.21,0-.5,0-.8,0-2.67-.14-3.6-.73-4.46-1.94s-1.74-2.85-2.56-4.25c-.41-.71-.75-.86-1.7-.86h-.63v3.69c0,2,.26,2.19,2.15,2.41v.83H182.3v-.83c1.94-.21,2.14-.37,2.14-2.41V18.76c0-2-.25-2.21-2.14-2.38v-.84h6.85c2.06,0,3.3.24,4.29.91a3.74,3.74,0,0,1,1.66,3.27c0,2.17-1.42,3.39-3.12,4.08.4.75,1.39,2.37,2.13,3.5A21,21,0,0,0,196,29.86a3.21,3.21,0,0,0,1.64,1.1Zm-9.3-8a3.76,3.76,0,0,0,2.52-.67A3.48,3.48,0,0,0,192,20.09c0-2.62-1.59-3.57-3.15-3.57a1.87,1.87,0,0,0-1.2.25c-.19.15-.25.43-.25,1V23.7Z"/><path class="cls-3" d="M200,31.58v-.83c1.93-.19,2.14-.32,2.14-2.41V18.81c0-2.09-.23-2.26-2.14-2.43v-.84h7.27v.84c-1.92.19-2.15.34-2.15,2.43v9.53c0,2.08.21,2.2,2.15,2.41v.83Z"/><path class="cls-3" d="M217.77,19.5c-.47-1.59-1.16-3.33-3.45-3.33a2.35,2.35,0,0,0-2.45,2.5c0,1.48,1,2.31,3.11,3.39,2.75,1.38,4.29,2.61,4.29,5,0,2.8-2.36,4.87-5.77,4.87a12.8,12.8,0,0,1-4-.78c-.17-.61-.54-2.87-.72-4.09l.9-.21c.49,1.59,1.77,4.09,4.24,4.09a2.42,2.42,0,0,0,2.57-2.63c0-1.6-.93-2.41-3-3.55-2.57-1.39-4.17-2.6-4.17-5.07s1.95-4.51,5.5-4.51a17.48,17.48,0,0,1,3.43.45c.1.9.25,2.08.44,3.66Z"/><path class="cls-3" d="M236.08,19.67a8.4,8.4,0,0,0-1-2.28c-.43-.57-.64-.76-2.06-.76h-1.89V28.37c0,2,.23,2.21,2.47,2.38v.83H225.8v-.83c2.16-.17,2.38-.35,2.38-2.38V16.63h-1.77c-1.37,0-1.77.19-2.22.84a9.53,9.53,0,0,0-.94,2.22h-.87c.17-1.7.33-3.49.39-4.75h.68c.37.58.66.6,1.38.6h9.83a1.47,1.47,0,0,0,1.37-.6h.68c0,1.08.11,3.12.23,4.66Z"/><path class="cls-3" d="M239.8,31.89a1.89,1.89,0,0,1,0-3.78,1.89,1.89,0,0,1,0,3.78Z"/><path class="cls-3" d="M257.9,27.44a33.78,33.78,0,0,1-1.37,3.89A21.62,21.62,0,0,1,252,32c-6.38,0-9.22-4.15-9.22-8.21,0-5.08,3.88-8.54,9.66-8.54a25.88,25.88,0,0,1,4.66.58c.12,1.14.29,2.85.47,4l-.91.17c-.51-1.83-1.19-2.78-2.49-3.3a6.45,6.45,0,0,0-2.3-.38c-3.75,0-5.67,3-5.67,6.93,0,4.6,2.37,7.66,6,7.66,2.23,0,3.56-1.11,4.86-3.74Z"/><path class="cls-3" d="M268.14,15.2a8,8,0,0,1,8.19,8.17c0,5.28-3.7,8.58-8.32,8.58a8.14,8.14,0,0,1-8.4-8.32A8.22,8.22,0,0,1,268.14,15.2Zm-.41,1c-2.6,0-4.69,2.42-4.69,6.87s2,7.83,5.35,7.83c2.57,0,4.54-2.26,4.54-6.86C272.93,19.07,270.72,16.22,267.73,16.22Z"/><path class="cls-3" d="M291.26,31.58v-.83c1.93-.2,2-.37,2-2.73V18.24c-1.86,4.34-4.27,9.85-5.73,13.34h-.75c-1.34-3.4-3.45-8.76-5.26-13.13-.36,8.06-.37,9.74-.37,10.48,0,1.35.56,1.64,2.35,1.82v.83h-6v-.83c1.41-.14,2-.42,2.24-1.84.11-.87.19-2.09.78-10.54.08-1.21-.12-1.79-2.26-2v-.84h5l5,11.45,5.16-11.45h4.9v.84c-2,.21-2.27.42-2.22,2.31l.16,9.33c0,2.36.14,2.47,2.2,2.73v.83Z"/></g></g></svg>