<svg xmlns="http://www.w3.org/2000/svg" viewBox="0 0 45 32" width="45" height="32">
	<defs>
		<clipPath clipPathUnits="userSpaceOnUse" id="cp1">
			<path d="M-208 -153L1232 -153L1232 16303L-208 16303Z" />
		</clipPath>
	</defs>
	<style>
		tspan { white-space:pre }
		.shp0 { fill: none;stroke: #535353;stroke-width: 2 } 
		.shp1 { fill: none;stroke: #535353;stroke-linecap:round;stroke-width: 2 } 
	</style>
	<g id="PPP-Web-Design_Article-UnGated_JCP" clip-path="url(#cp1)">
		<g id="Group 7">
			<path id="Stroke 1" class="shp0" d="M33.44 2.32L42.58 9.29C43.14 9.71 43.14 10.41 42.58 10.83L33.61 17.68C32.71 18.36 31.17 17.88 31.16 16.91L31 3.1C30.99 2.13 32.54 1.63 33.44 2.32Z" />
			<path id="Stroke 3" class="shp1" d="M39 22L39 26.6C39 28.48 37.49 30 35.62 30L5.38 30C3.51 30 2 28.48 2 26.6L2 6.4C2 4.52 3.51 3 5.38 3L21.84 3" />
			<path id="Stroke 5" class="shp1" d="M31 9L22.52 9C19.47 9 17 11.53 17 14.66L17 22" />
		</g>
	</g>
</svg>